<svg width="109" height="20" viewBox="0 0 109 20" fill="none" xmlns="http://www.w3.org/2000/svg">
<circle cx="6.5" cy="9.5" r="6.5" fill="#DBA211"/>
<path d="M22.043 9.27441C22.043 8.7002 21.9108 8.19206 21.6465 7.75C21.3867 7.30794 20.9629 7.08691 20.375 7.08691C19.6686 7.08691 19.1833 7.42188 18.9189 8.0918C18.7822 8.44727 18.7139 8.89844 18.7139 9.44531C18.7139 10.3112 18.944 10.9196 19.4043 11.2705C19.6777 11.4756 20.0013 11.5781 20.375 11.5781C20.9173 11.5781 21.3298 11.3685 21.6123 10.9492C21.8994 10.5299 22.043 9.97168 22.043 9.27441ZM20.9355 5.38477C21.806 5.38477 22.542 5.70605 23.1436 6.34863C23.7497 6.99121 24.0527 7.93457 24.0527 9.17871C24.0527 10.4912 23.7565 11.4915 23.1641 12.1797C22.5762 12.8678 21.8174 13.2119 20.8877 13.2119C20.2952 13.2119 19.8031 13.0638 19.4111 12.7676C19.1969 12.6035 18.9873 12.3643 18.7822 12.0498V15.9326H16.8545V5.54883H18.7207V6.64941C18.9303 6.32585 19.1536 6.07064 19.3906 5.88379C19.8236 5.55111 20.3385 5.38477 20.9355 5.38477ZM28.4072 6.95703C27.9561 6.95703 27.6051 7.09831 27.3545 7.38086C27.1084 7.66341 26.9535 8.04622 26.8896 8.5293H29.918C29.8861 8.01432 29.7288 7.62467 29.4463 7.36035C29.1683 7.09147 28.8219 6.95703 28.4072 6.95703ZM28.4072 5.35059C29.027 5.35059 29.5853 5.4668 30.082 5.69922C30.5788 5.93164 30.9889 6.2985 31.3125 6.7998C31.6042 7.24186 31.7933 7.75456 31.8799 8.33789C31.93 8.67969 31.9505 9.17188 31.9414 9.81445H26.8418C26.8691 10.5618 27.1038 11.0859 27.5459 11.3867C27.8148 11.5736 28.1383 11.667 28.5166 11.667C28.9176 11.667 29.2435 11.5531 29.4941 11.3252C29.6309 11.2021 29.7516 11.0312 29.8564 10.8125H31.8457C31.7956 11.2546 31.5654 11.7035 31.1553 12.1592C30.5173 12.8838 29.624 13.2461 28.4756 13.2461C27.5277 13.2461 26.6914 12.9408 25.9668 12.3301C25.2422 11.7194 24.8799 10.7259 24.8799 9.34961C24.8799 8.0599 25.2057 7.07096 25.8574 6.38281C26.5137 5.69466 27.3636 5.35059 28.4072 5.35059ZM37.3896 5.37109C38.1598 5.37109 38.7887 5.57389 39.2764 5.97949C39.7686 6.38053 40.0146 7.04818 40.0146 7.98242V13H38.0186V8.46777C38.0186 8.07585 37.9661 7.77507 37.8613 7.56543C37.6699 7.18262 37.3053 6.99121 36.7676 6.99121C36.1068 6.99121 35.6533 7.27148 35.4072 7.83203C35.2796 8.12826 35.2158 8.50651 35.2158 8.9668V13H33.2744V5.5625H35.1543V6.64941C35.4049 6.2666 35.6419 5.99089 35.8652 5.82227C36.2663 5.52148 36.7744 5.37109 37.3896 5.37109ZM44.5674 5.37109C45.0186 5.37109 45.4196 5.47135 45.7705 5.67188C46.1214 5.86784 46.4062 6.14128 46.625 6.49219V2.9375H48.6006V13H46.707V11.9678C46.429 12.4098 46.1123 12.7311 45.7568 12.9316C45.4014 13.1322 44.9593 13.2324 44.4307 13.2324C43.5602 13.2324 42.8265 12.8815 42.2295 12.1797C41.637 11.4733 41.3408 10.5687 41.3408 9.46582C41.3408 8.19434 41.6325 7.19401 42.2158 6.46484C42.8037 5.73568 43.5876 5.37109 44.5674 5.37109ZM44.9912 11.5918C45.5426 11.5918 45.9619 11.3867 46.249 10.9766C46.5361 10.5664 46.6797 10.0355 46.6797 9.38379C46.6797 8.47233 46.4495 7.82064 45.9893 7.42871C45.7067 7.19173 45.3786 7.07324 45.0049 7.07324C44.4352 7.07324 44.016 7.28971 43.7471 7.72266C43.4827 8.15104 43.3506 8.68424 43.3506 9.32227C43.3506 10.0104 43.485 10.5618 43.7539 10.9766C44.0273 11.3867 44.4398 11.5918 44.9912 11.5918ZM53.7207 11.626C54.2904 11.626 54.7279 11.4232 55.0332 11.0176C55.3385 10.612 55.4912 10.0355 55.4912 9.28809C55.4912 8.54069 55.3385 7.96647 55.0332 7.56543C54.7279 7.15983 54.2904 6.95703 53.7207 6.95703C53.151 6.95703 52.7113 7.15983 52.4014 7.56543C52.096 7.96647 51.9434 8.54069 51.9434 9.28809C51.9434 10.0355 52.096 10.612 52.4014 11.0176C52.7113 11.4232 53.151 11.626 53.7207 11.626ZM57.5352 9.28809C57.5352 10.3818 57.2207 11.3184 56.5918 12.0977C55.9629 12.8724 55.0081 13.2598 53.7275 13.2598C52.4469 13.2598 51.4922 12.8724 50.8633 12.0977C50.2344 11.3184 49.9199 10.3818 49.9199 9.28809C49.9199 8.21257 50.2344 7.2806 50.8633 6.49219C51.4922 5.70378 52.4469 5.30957 53.7275 5.30957C55.0081 5.30957 55.9629 5.70378 56.5918 6.49219C57.2207 7.2806 57.5352 8.21257 57.5352 9.28809ZM58.3486 8.17383H62.2725V10.0195H58.3486V8.17383ZM63.5781 2.95801H65.4922V8.38574L67.9189 5.58301H70.332L67.7275 8.43359L70.4346 13H68.083L66.2988 9.81445L65.4922 10.6553V13H63.5781V2.95801ZM74.3311 6.95703C73.8799 6.95703 73.529 7.09831 73.2783 7.38086C73.0322 7.66341 72.8773 8.04622 72.8135 8.5293H75.8418C75.8099 8.01432 75.6527 7.62467 75.3701 7.36035C75.0921 7.09147 74.7458 6.95703 74.3311 6.95703ZM74.3311 5.35059C74.9508 5.35059 75.5091 5.4668 76.0059 5.69922C76.5026 5.93164 76.9128 6.2985 77.2363 6.7998C77.528 7.24186 77.7171 7.75456 77.8037 8.33789C77.8538 8.67969 77.8743 9.17188 77.8652 9.81445H72.7656C72.793 10.5618 73.0277 11.0859 73.4697 11.3867C73.7386 11.5736 74.0622 11.667 74.4404 11.667C74.8415 11.667 75.1673 11.5531 75.418 11.3252C75.5547 11.2021 75.6755 11.0312 75.7803 10.8125H77.7695C77.7194 11.2546 77.4893 11.7035 77.0791 12.1592C76.4411 12.8838 75.5479 13.2461 74.3994 13.2461C73.4515 13.2461 72.6152 12.9408 71.8906 12.3301C71.166 11.7194 70.8037 10.7259 70.8037 9.34961C70.8037 8.0599 71.1296 7.07096 71.7812 6.38281C72.4375 5.69466 73.2874 5.35059 74.3311 5.35059ZM81.1738 13H79.2256V2.92383H81.1738V13ZM84.5986 10.6211C84.6396 10.9674 84.7285 11.2135 84.8652 11.3594C85.1068 11.6191 85.5534 11.749 86.2051 11.749C86.5879 11.749 86.891 11.6921 87.1143 11.5781C87.3421 11.4642 87.4561 11.2933 87.4561 11.0654C87.4561 10.8467 87.3649 10.6803 87.1826 10.5664C87.0003 10.4525 86.3236 10.2565 85.1523 9.97852C84.3092 9.76888 83.7145 9.50684 83.3682 9.19238C83.0218 8.88249 82.8486 8.43587 82.8486 7.85254C82.8486 7.16439 83.1175 6.57422 83.6553 6.08203C84.1976 5.58529 84.9587 5.33691 85.9385 5.33691C86.8682 5.33691 87.6247 5.52376 88.208 5.89746C88.7959 6.2666 89.1331 6.9069 89.2197 7.81836H87.2715C87.2441 7.56771 87.1735 7.36947 87.0596 7.22363C86.8454 6.95931 86.4808 6.82715 85.9658 6.82715C85.542 6.82715 85.2389 6.89323 85.0566 7.02539C84.8789 7.15755 84.79 7.3125 84.79 7.49023C84.79 7.71354 84.8857 7.87533 85.0771 7.97559C85.2686 8.0804 85.9453 8.26042 87.1074 8.51562C87.8822 8.69792 88.4632 8.97363 88.8506 9.34277C89.2334 9.71647 89.4248 10.1836 89.4248 10.7441C89.4248 11.4824 89.1491 12.0863 88.5977 12.5557C88.0508 13.0205 87.2031 13.2529 86.0547 13.2529C84.8835 13.2529 84.0176 13.0068 83.457 12.5146C82.901 12.0179 82.623 11.3867 82.623 10.6211H84.5986ZM93.8135 6.95703C93.3623 6.95703 93.0114 7.09831 92.7607 7.38086C92.5146 7.66341 92.3597 8.04622 92.2959 8.5293H95.3242C95.2923 8.01432 95.1351 7.62467 94.8525 7.36035C94.5745 7.09147 94.2282 6.95703 93.8135 6.95703ZM93.8135 5.35059C94.4333 5.35059 94.9915 5.4668 95.4883 5.69922C95.985 5.93164 96.3952 6.2985 96.7188 6.7998C97.0104 7.24186 97.1995 7.75456 97.2861 8.33789C97.3363 8.67969 97.3568 9.17188 97.3477 9.81445H92.248C92.2754 10.5618 92.5101 11.0859 92.9521 11.3867C93.221 11.5736 93.5446 11.667 93.9229 11.667C94.3239 11.667 94.6497 11.5531 94.9004 11.3252C95.0371 11.2021 95.1579 11.0312 95.2627 10.8125H97.252C97.2018 11.2546 96.9717 11.7035 96.5615 12.1592C95.9235 12.8838 95.0303 13.2461 93.8818 13.2461C92.9339 13.2461 92.0977 12.9408 91.373 12.3301C90.6484 11.7194 90.2861 10.7259 90.2861 9.34961C90.2861 8.0599 90.612 7.07096 91.2637 6.38281C91.9199 5.69466 92.7699 5.35059 93.8135 5.35059ZM98.9678 14.4287L99.2139 14.4424C99.4053 14.4515 99.5876 14.4447 99.7607 14.4219C99.9339 14.3991 100.08 14.3467 100.198 14.2646C100.312 14.1872 100.417 14.0254 100.513 13.7793C100.613 13.5332 100.654 13.3828 100.636 13.3281L97.9014 5.54883H100.068L101.695 11.0449L103.233 5.54883H105.305L102.748 12.877C102.256 14.2897 101.866 15.1647 101.579 15.502C101.292 15.8438 100.718 16.0146 99.8564 16.0146C99.6833 16.0146 99.5443 16.0124 99.4395 16.0078C99.3346 16.0078 99.1774 16.001 98.9678 15.9873V14.4287Z" fill="#2A2C35"/>
</svg>
